<?xml version="1.0" encoding="UTF-8" standalone="no"?>
<!-- Created with Inkscape (http://www.inkscape.org/) -->

<svg
   version="1.1"
   id="svg1"
   width="566.93335"
   height="302.35999"
   viewBox="0 0 566.93335 302.35999"
   sodipodi:docname="CHU•logo•BLANC.eps"
   xmlns:inkscape="http://www.inkscape.org/namespaces/inkscape"
   xmlns:sodipodi="http://sodipodi.sourceforge.net/DTD/sodipodi-0.dtd"
   xmlns="http://www.w3.org/2000/svg"
   xmlns:svg="http://www.w3.org/2000/svg">
  <defs
     id="defs1" />
  <sodipodi:namedview
     id="namedview1"
     pagecolor="#ffffff"
     bordercolor="#000000"
     borderopacity="0.25"
     inkscape:showpageshadow="2"
     inkscape:pageopacity="0.0"
     inkscape:pagecheckerboard="0"
     inkscape:deskcolor="#d1d1d1">
    <inkscape:page
       x="0"
       y="0"
       inkscape:label="1"
       id="page1"
       width="566.93335"
       height="302.35999"
       margin="0"
       bleed="0" />
  </sodipodi:namedview>
  <g
     id="g1"
     inkscape:groupmode="layer"
     inkscape:label="1">
    <g
       id="group-R5">
      <path
         id="path2"
         d="m 69.6758,541.102 c 24.9844,0 42.6212,-9.864 55.6832,-25.454 l -11.914,-10.527 c -12.144,15.348 -26.363,21.777 -43.3161,21.777 -36.8984,0 -53.4023,-33.238 -53.4023,-66.019 0,-32.77 16.5039,-65.988 53.4023,-65.988 16.9531,0 31.1721,6.398 43.3161,21.757 l 11.914,-10.527 C 112.297,390.531 94.6602,380.672 69.6758,380.672 22.0039,380.672 0,419.871 0,460.648 c 0,41.25 22.0039,80.454 69.6758,80.454"
         style="fill:#ffffff;fill-opacity:1;fill-rule:nonzero;stroke:none"
         transform="matrix(0.13333333,0,0,-0.13333333,0,302.36)" />
      <path
         id="path3"
         d="m 171.199,383.66 v 154.449 h 91.899 V 523.461 H 187.473 V 470.75 h 68.75 v -14.219 h -68.75 v -58.203 h 80.215 V 383.66 h -96.489"
         style="fill:#ffffff;fill-opacity:1;fill-rule:nonzero;stroke:none"
         transform="matrix(0.13333333,0,0,-0.13333333,0,302.36)" />
      <path
         id="path4"
         d="M 426.277,381.59 330.48,508.328 V 383.66 h -15.824 v 156.52 h 11.914 l 96.035,-127.418 v 125.347 h 15.801 V 381.59 h -12.129"
         style="fill:#ffffff;fill-opacity:1;fill-rule:nonzero;stroke:none"
         transform="matrix(0.13333333,0,0,-0.13333333,0,302.36)" />
      <path
         id="path5"
         d="M 546.355,523.461 V 383.66 H 530.09 v 139.801 h -57.285 v 14.648 H 603.43 v -14.648 h -57.075"
         style="fill:#ffffff;fill-opacity:1;fill-rule:nonzero;stroke:none"
         transform="matrix(0.13333333,0,0,-0.13333333,0,302.36)" />
      <path
         id="path6"
         d="m 692.59,524.148 h -38.52 v -61.66 h 36.899 c 19.492,0 33.926,9.864 33.926,31.403 0,18.789 -14.204,30.257 -32.305,30.257 z M 731.531,383.66 687.313,448.5 H 654.07 v -64.84 h -16.265 v 154.449 h 55.465 c 26.347,0 47.89,-16.031 47.89,-43.98 0,-25.688 -16.504,-40.117 -36.211,-43.32 l 46.992,-67.149 h -20.41"
         style="fill:#ffffff;fill-opacity:1;fill-rule:nonzero;stroke:none"
         transform="matrix(0.13333333,0,0,-0.13333333,0,302.36)" />
      <path
         id="path7"
         d="m 795.48,383.66 v 154.449 h 91.891 V 523.461 H 811.746 V 470.75 h 68.75 v -14.219 h -68.75 v -58.203 h 80.219 V 383.66 H 795.48"
         style="fill:#ffffff;fill-opacity:1;fill-rule:nonzero;stroke:none"
         transform="matrix(0.13333333,0,0,-0.13333333,0,302.36)" />
      <path
         id="path8"
         d="m 1103.51,383.66 v 72.871 h -91 V 383.66 h -16.272 v 154.449 h 16.272 v -66.91 h 91 v 66.91 h 16.27 V 383.66 h -16.27"
         style="fill:#ffffff;fill-opacity:1;fill-rule:nonzero;stroke:none"
         transform="matrix(0.13333333,0,0,-0.13333333,0,302.36)" />
      <path
         id="path9"
         d="m 1233.21,526.898 c -37.34,0 -56.6,-31.41 -56.6,-66.019 0,-34.141 19.26,-65.988 56.6,-65.988 37.37,0 56.6,31.379 56.6,65.988 0,34.141 -19.23,66.019 -56.6,66.019 z m 0,-146.226 c -48.59,0 -73.34,38.5 -73.34,80.449 0,41.93 24.75,79.981 73.34,79.981 48.6,0 73.34,-38.051 73.34,-79.981 0,-41.949 -24.74,-80.449 -73.34,-80.449"
         style="fill:#ffffff;fill-opacity:1;fill-rule:nonzero;stroke:none"
         transform="matrix(0.13333333,0,0,-0.13333333,0,302.36)" />
      <path
         id="path10"
         d="m 1392.04,526.898 c -22.93,0 -33.24,-10.328 -33.24,-24.769 0,-40.801 85.72,-23.59 85.72,-78.141 0,-28.179 -23.38,-43.316 -54.31,-43.316 -22.47,0 -40.57,7.109 -55.69,24.758 l 12.15,11.218 c 10.55,-13.519 24.28,-21.757 43.98,-21.757 23.85,0 36.92,10.539 36.92,26.109 0,45.16 -85.72,24.77 -85.72,78.609 0,21.332 14.43,41.493 49.74,41.493 21.31,0 37.11,-6.641 51.56,-23.602 l -11.46,-10.801 c -9.86,13.09 -22.7,20.199 -39.65,20.199"
         style="fill:#ffffff;fill-opacity:1;fill-rule:nonzero;stroke:none"
         transform="matrix(0.13333333,0,0,-0.13333333,0,302.36)" />
      <path
         id="path11"
         d="m 1546.51,524.148 h -37.59 v -68.539 h 37.36 c 23.61,0 35.74,12.379 35.74,34.379 0,20.391 -13.96,34.16 -35.51,34.16 z m 0.45,-82.738 h -38.04 v -57.75 h -16.27 v 154.449 h 54.55 c 30.49,0 51.11,-18.32 51.11,-47.66 0,-30.48 -19.02,-49.039 -51.35,-49.039"
         style="fill:#ffffff;fill-opacity:1;fill-rule:nonzero;stroke:none"
         transform="matrix(0.13333333,0,0,-0.13333333,0,302.36)" />
      <path
         id="path12"
         d="m 1639.56,383.66 v 154.449 h 16.27 V 383.66 h -16.27"
         style="fill:#ffffff;fill-opacity:1;fill-rule:nonzero;stroke:none"
         transform="matrix(0.13333333,0,0,-0.13333333,0,302.36)" />
      <path
         id="path13"
         d="M 1763.78,523.461 V 383.66 h -16.29 v 139.801 h -57.28 v 14.648 h 130.62 v -14.648 h -57.05"
         style="fill:#ffffff;fill-opacity:1;fill-rule:nonzero;stroke:none"
         transform="matrix(0.13333333,0,0,-0.13333333,0,302.36)" />
      <path
         id="path14"
         d="m 1880.65,516.801 -28.18,-71.723 h 56.6 z m 52.72,-133.141 -18.79,47.442 h -67.62 l -18.57,-47.442 h -17.87 l 63.73,156.762 h 13.96 l 63.26,-156.762 h -18.1"
         style="fill:#ffffff;fill-opacity:1;fill-rule:nonzero;stroke:none"
         transform="matrix(0.13333333,0,0,-0.13333333,0,302.36)" />
      <path
         id="path15"
         d="m 1985.85,383.66 v 154.449 h 16.27 V 398.328 h 81.35 V 383.66 h -97.62"
         style="fill:#ffffff;fill-opacity:1;fill-rule:nonzero;stroke:none"
         transform="matrix(0.13333333,0,0,-0.13333333,0,302.36)" />
      <path
         id="path16"
         d="M 2124.72,383.66 V 538.109 H 2141 V 383.66 h -16.28"
         style="fill:#ffffff;fill-opacity:1;fill-rule:nonzero;stroke:none"
         transform="matrix(0.13333333,0,0,-0.13333333,0,302.36)" />
      <path
         id="path17"
         d="m 2196.02,383.66 v 154.449 h 91.89 v -14.648 h -75.62 V 470.75 h 68.75 v -14.219 h -68.75 v -58.203 h 80.21 V 383.66 h -96.48"
         style="fill:#ffffff;fill-opacity:1;fill-rule:nonzero;stroke:none"
         transform="matrix(0.13333333,0,0,-0.13333333,0,302.36)" />
      <path
         id="path18"
         d="m 2394.24,524.148 h -38.5 v -61.66 h 36.9 c 19.49,0 33.92,9.864 33.92,31.403 0,18.789 -14.22,30.257 -32.32,30.257 z m 38.96,-140.488 -44.24,64.84 h -33.22 v -64.84 h -16.27 v 154.449 h 55.45 c 26.37,0 47.91,-16.031 47.91,-43.98 0,-25.688 -16.5,-40.117 -36.21,-43.32 l 46.97,-67.149 h -20.39"
         style="fill:#ffffff;fill-opacity:1;fill-rule:nonzero;stroke:none"
         transform="matrix(0.13333333,0,0,-0.13333333,0,302.36)" />
      <path
         id="path19"
         d="m 2554.43,435.672 v 102.437 h 16.29 v -102.66 c 0,-27.277 21.08,-40.558 45.37,-40.558 26.35,0 46.08,13.75 46.08,40.328 v 102.89 h 15.8 V 435.672 c 0,-34.832 -26.58,-55 -61.88,-55 -34.14,0 -61.66,20.41 -61.66,55"
         style="fill:#ffffff;fill-opacity:1;fill-rule:nonzero;stroke:none"
         transform="matrix(0.13333333,0,0,-0.13333333,0,302.36)" />
      <path
         id="path20"
         d="m 2844.59,381.59 -95.8,126.738 V 383.66 h -15.82 v 156.52 h 11.93 l 96.02,-127.418 v 125.347 h 15.8 V 381.59 h -12.13"
         style="fill:#ffffff;fill-opacity:1;fill-rule:nonzero;stroke:none"
         transform="matrix(0.13333333,0,0,-0.13333333,0,302.36)" />
      <path
         id="path21"
         d="m 2911.74,383.66 v 154.449 h 16.27 V 383.66 h -16.27"
         style="fill:#ffffff;fill-opacity:1;fill-rule:nonzero;stroke:none"
         transform="matrix(0.13333333,0,0,-0.13333333,0,302.36)" />
      <path
         id="path22"
         d="m 3033.18,406.121 52.27,131.988 h 17.87 L 3039.61,382.5 h -13.98 l -63.25,155.609 h 18.11 l 52.69,-131.988"
         style="fill:#ffffff;fill-opacity:1;fill-rule:nonzero;stroke:none"
         transform="matrix(0.13333333,0,0,-0.13333333,0,302.36)" />
      <path
         id="path23"
         d="m 3137.7,383.66 v 154.449 h 91.91 v -14.648 h -75.63 V 470.75 h 68.75 v -14.219 h -68.75 v -58.203 h 80.2 V 383.66 h -96.48"
         style="fill:#ffffff;fill-opacity:1;fill-rule:nonzero;stroke:none"
         transform="matrix(0.13333333,0,0,-0.13333333,0,302.36)" />
      <path
         id="path24"
         d="m 3335.94,524.148 h -38.5 v -61.66 h 36.9 c 19.49,0 33.92,9.864 33.92,31.403 0,18.789 -14.22,30.257 -32.32,30.257 z m 38.96,-140.488 -44.22,64.84 h -33.24 v -64.84 h -16.27 v 154.449 h 55.45 c 26.37,0 47.91,-16.031 47.91,-43.98 0,-25.688 -16.5,-40.117 -36.21,-43.32 l 46.97,-67.149 h -20.39"
         style="fill:#ffffff;fill-opacity:1;fill-rule:nonzero;stroke:none"
         transform="matrix(0.13333333,0,0,-0.13333333,0,302.36)" />
      <path
         id="path25"
         d="m 3479.65,526.898 c -22.93,0 -33.24,-10.328 -33.24,-24.769 0,-40.801 85.72,-23.59 85.72,-78.141 0,-28.179 -23.38,-43.316 -54.32,-43.316 -22.46,0 -40.56,7.109 -55.68,24.758 l 12.13,11.218 c 10.54,-13.519 24.29,-21.757 44,-21.757 23.85,0 36.9,10.539 36.9,26.109 0,45.16 -85.71,24.77 -85.71,78.609 0,21.332 14.44,41.493 49.73,41.493 21.33,0 37.13,-6.641 51.56,-23.602 l -11.44,-10.801 c -9.87,13.09 -22.7,20.199 -39.65,20.199"
         style="fill:#ffffff;fill-opacity:1;fill-rule:nonzero;stroke:none"
         transform="matrix(0.13333333,0,0,-0.13333333,0,302.36)" />
      <path
         id="path26"
         d="m 3580.25,383.66 v 154.449 h 16.27 V 383.66 h -16.27"
         style="fill:#ffffff;fill-opacity:1;fill-rule:nonzero;stroke:none"
         transform="matrix(0.13333333,0,0,-0.13333333,0,302.36)" />
      <path
         id="path27"
         d="M 3704.47,523.461 V 383.66 h -16.29 v 139.801 h -57.28 v 14.648 h 130.62 v -14.648 h -57.05"
         style="fill:#ffffff;fill-opacity:1;fill-rule:nonzero;stroke:none"
         transform="matrix(0.13333333,0,0,-0.13333333,0,302.36)" />
      <path
         id="path28"
         d="m 3821.35,516.801 -28.19,-71.723 h 56.61 z m 52.71,-133.141 -18.79,47.442 h -67.61 L 3769.1,383.66 h -17.87 l 63.69,156.762 h 13.99 l 63.26,-156.762 h -18.11"
         style="fill:#ffffff;fill-opacity:1;fill-rule:nonzero;stroke:none"
         transform="matrix(0.13333333,0,0,-0.13333333,0,302.36)" />
      <path
         id="path29"
         d="m 3926.54,383.66 v 154.449 h 16.27 V 383.66 h -16.27"
         style="fill:#ffffff;fill-opacity:1;fill-rule:nonzero;stroke:none"
         transform="matrix(0.13333333,0,0,-0.13333333,0,302.36)" />
      <path
         id="path30"
         d="m 4052.58,524.148 h -38.5 v -61.66 h 36.9 c 19.49,0 33.92,9.864 33.92,31.403 0,18.789 -14.22,30.257 -32.32,30.257 z m 38.96,-140.488 -44.24,64.84 h -33.22 v -64.84 h -16.27 v 154.449 h 55.45 c 26.37,0 47.91,-16.031 47.91,-43.98 0,-25.688 -16.5,-40.117 -36.21,-43.32 l 46.97,-67.149 h -20.39"
         style="fill:#ffffff;fill-opacity:1;fill-rule:nonzero;stroke:none"
         transform="matrix(0.13333333,0,0,-0.13333333,0,302.36)" />
      <path
         id="path31"
         d="m 4155.49,383.66 v 154.449 h 91.89 v -14.648 h -75.62 V 470.75 h 68.75 v -14.219 h -68.75 v -58.203 h 80.21 V 383.66 h -96.48"
         style="fill:#ffffff;fill-opacity:1;fill-rule:nonzero;stroke:none"
         transform="matrix(0.13333333,0,0,-0.13333333,0,302.36)" />
      <path
         id="path32"
         d="M 1002.1,4.80078 V 254.551 h 45.94 V 52.2383 h 125.23 V 4.80078 H 1002.1"
         style="fill:#ffffff;fill-opacity:1;fill-rule:nonzero;stroke:none"
         transform="matrix(0.13333333,0,0,-0.13333333,0,302.36)" />
      <path
         id="path33"
         d="m 1297.74,113 h 60.04 l -29.65,80.039 z m 77.45,-47.0703 h -94.48 L 1258.1,4.80078 h -50.02 l 92.63,249.75022 h 54.48 L 1447.82,4.80078 h -50.04 l -22.59,61.12892"
         style="fill:#ffffff;fill-opacity:1;fill-rule:nonzero;stroke:none"
         transform="matrix(0.13333333,0,0,-0.13333333,0,302.36)" />
      <path
         id="path34"
         d="m 1679.35,206.75 h -52.97 v -62.988 h 50.76 c 27.77,0 42.23,11.117 42.23,34.09 0,19.628 -14.09,28.898 -40.02,28.898 z M 1726.79,4.80078 1665.28,95.582 h -38.9 V 4.80078 h -45.96 V 254.551 h 99.67 c 51.13,0 88.18,-27.801 88.18,-76.332 0,-40.391 -26.66,-64.848 -53.34,-74.098 l 68.91,-99.32022 h -57.05"
         style="fill:#ffffff;fill-opacity:1;fill-rule:nonzero;stroke:none"
         transform="matrix(0.13333333,0,0,-0.13333333,0,302.36)" />
      <path
         id="path35"
         d="m 1899.05,259.352 18.15,24.097 h 53.36 l -17.8,-24.097 z M 1835.3,4.80078 V 254.551 h 166.37 V 206.75 h -120.41 v -42.988 h 109.3 v -48.16 h -109.3 V 52.2383 h 127.83 V 4.80078 H 1835.3"
         style="fill:#ffffff;fill-opacity:1;fill-rule:nonzero;stroke:none"
         transform="matrix(0.13333333,0,0,-0.13333333,0,302.36)" />
      <path
         id="path36"
         d="M 2059.83,96.6914 V 254.551 h 45.94 V 96.3398 c 0,-34.4687 27.8,-50.4101 63.39,-50.4101 37.79,0 63.73,15.9414 63.73,50.4101 V 254.551 h 45.94 V 96.6914 C 2278.83,33.3281 2233.26,0 2169.16,0 2106.51,0 2059.83,33.7109 2059.83,96.6914"
         style="fill:#ffffff;fill-opacity:1;fill-rule:nonzero;stroke:none"
         transform="matrix(0.13333333,0,0,-0.13333333,0,302.36)" />
      <path
         id="path37"
         d="M 2507.79,4.80078 2394.41,181.191 V 4.80078 h -45.95 V 254.551 h 60.02 L 2521.86,75.9492 V 254.551 h 45.95 V 4.80078 h -60.02"
         style="fill:#ffffff;fill-opacity:1;fill-rule:nonzero;stroke:none"
         transform="matrix(0.13333333,0,0,-0.13333333,0,302.36)" />
      <path
         id="path38"
         d="M 2637.44,4.80078 V 254.551 h 45.94 V 4.80078 h -45.94"
         style="fill:#ffffff;fill-opacity:1;fill-rule:nonzero;stroke:none"
         transform="matrix(0.13333333,0,0,-0.13333333,0,302.36)" />
      <path
         id="path39"
         d="m 2929.77,129.289 c 0,44.473 -25.57,84.121 -71.51,84.121 -45.94,0 -71.89,-38.898 -71.89,-83.359 0,-44.469 25.95,-84.1213 71.89,-84.1213 46.31,0 71.51,38.9101 71.51,83.3593 z m -192.31,0.762 c 0,68.539 47.79,129.301 120.8,129.301 72.99,0 120.41,-61.5 120.41,-130.063 C 2978.67,60.7617 2930.88,0 2858.26,0 c -73.01,0 -120.8,61.5 -120.8,130.051"
         style="fill:#ffffff;fill-opacity:1;fill-rule:nonzero;stroke:none"
         transform="matrix(0.13333333,0,0,-0.13333333,0,302.36)" />
      <path
         id="path40"
         d="M 3189.86,4.80078 3076.46,181.191 V 4.80078 h -45.93 V 254.551 h 60.04 L 3203.95,75.9492 V 254.551 h 45.93 V 4.80078 h -60.02"
         style="fill:#ffffff;fill-opacity:1;fill-rule:nonzero;stroke:none"
         transform="matrix(0.13333333,0,0,-0.13333333,0,302.36)" />
      <path
         id="path41"
         d="M 834.813,165.27 H 28.3477 C 12.7539,165.27 0,154.68 0,141.711 0,128.762 12.7539,118.16 28.3477,118.16 H 257.5 834.813 863.152 v 47.11 h -28.339"
         style="fill:#ffffff;fill-opacity:1;fill-rule:nonzero;stroke:none"
         transform="matrix(0.13333333,0,0,-0.13333333,0,302.36)" />
      <path
         id="path42"
         d="m 3417.15,118.16 h 806.48 c 15.59,0 28.34,10.602 28.34,23.551 0,12.969 -12.75,23.559 -28.34,23.559 h -229.16 -577.32 -28.34 v -47.11 h 28.34"
         style="fill:#ffffff;fill-opacity:1;fill-rule:nonzero;stroke:none"
         transform="matrix(0.13333333,0,0,-0.13333333,0,302.36)" />
      <path
         id="path43"
         d="m 1530.33,1389.57 c 110.64,43.83 242.87,100.52 390.11,171.81 v 32.72 328.3 345.31 h -391.48 l 0.72,-345.31 h -0.72 l 1.37,-532.83"
         style="fill:#ffffff;fill-opacity:1;fill-rule:nonzero;stroke:none"
         transform="matrix(0.13333333,0,0,-0.13333333,0,302.36)" />
      <path
         id="path44"
         d="m 2074.06,1355.13 c -240,-160 -1239.99,-783.341 -1773.322,-240 0,0 576.664,-510.001 1773.322,283.34 0,0 553.34,340 1013.34,640 0,0 -773.34,-523.34 -1013.34,-683.34 z m 1806.98,912.58 v -406.66 c 0,-0.06 0,-0.14 0,-0.19 v -458.23 c -0.45,-82.81 -27.84,-148.81 -86.43,-208.1 -7.4,-7.33 -14.92,-14.16 -22.56,-20.53 -7.64,-6.36 -15.39,-12.24 -23.3,-17.65 -47.44,-32.45 -100.06,-47.93 -162.13,-48.28 -82.75,0.47 -148.75,27.83 -208.01,86.47 -58.59,59.29 -85.97,125.29 -86.42,208.1 v 458.22 c 0,0.07 -0.02,0.17 -0.02,0.25 v 121.23 l 0.02,277.79 c -55.04,-28.69 -109.48,-59.16 -162.95,-90.65 -71.43,-42.06 -141.15,-86.01 -207.99,-130.49 -84.06,-55.93 -163.68,-112.59 -236.8,-166.98 v 50.39 345.31 h -391.48 l 0.72,-345.31 h -0.72 l 0.61,-294.18 C 1764.3,1325.37 1332.87,1183.29 1212.7,1146.76 c -419.864,-81.04 -629.864,-0.34 -732.341,97.41 -62.832,68.7 -101.343,159.99 -101.343,260.22 0,30.41 1.797,83.65 8.472,112.05 h -1.695 c 82.906,332.87 385.176,555.94 743.557,555.94 2.81,0 5.58,-0.12 8.39,-0.16 -110.37,61.84 -218.592,87.8 -354.095,87.8 -413.95,0 -769.6997,-319.61 -783.008281,-730.49 -0.058594,-2.07 -0.121094,-4.14 -0.179688,-6.23 C 0.332031,1518.02 0.0195313,1512.79 0,1507.48 h 0.203125 c 0,-1.04 -0.035156,-2.05 -0.035156,-3.09 0,-343.34 226.031031,-633.82 537.344031,-730.691 l -0.11,-0.14 c 89.411,-26.309 179.571,-34.797 269.078,-35.278 179.704,-7.371 411.03,33.789 723.87,184.239 l 1.07,-184.508 h 389.02 v 345.308 59.19 c 97.69,62.33 201.52,133.43 312.08,214.42 20.85,15.27 41.3,30.11 61.53,44.71 l 1.38,-663.628 h 389.02 v 345.308 584.13 c 86.57,54.91 165.35,101.85 236.8,141.71 v -406.52 -0.01 c -0.47,-182.05 65.9,-342.32 194.84,-470.689 22.84,-22.953 46.72,-43.832 71.51,-62.781 1.27,-0.969 2.5,-2.031 3.77,-2.98 5.97,-4.508 12.09,-8.739 18.16,-13.02 2.81,-1.969 5.55,-4.07 8.38,-5.988 5.25,-3.57 10.64,-6.883 15.98,-10.281 3.77,-2.391 7.48,-4.922 11.27,-7.243 4.88,-2.968 9.86,-5.679 14.8,-8.507 4.38,-2.493 8.69,-5.121 13.11,-7.512 4.78,-2.578 9.64,-4.91 14.49,-7.367 4.69,-2.383 9.32,-4.883 14.06,-7.141 4.81,-2.293 9.69,-4.332 14.53,-6.492 4.9,-2.18 9.73,-4.457 14.67,-6.508 4.86,-2.019 9.82,-3.801 14.73,-5.699 5.04,-1.934 10.02,-3.992 15.09,-5.801 4.99,-1.769 10.04,-3.312 15.08,-4.961 5.12,-1.672 10.18,-3.449 15.33,-5.012 5.12,-1.527 10.34,-2.82 15.49,-4.226 5.18,-1.41 10.32,-2.934 15.55,-4.211 5.25,-1.289 10.62,-2.352 15.94,-3.512 5.21,-1.14 10.39,-2.39 15.66,-3.41 5.35,-1.027 10.8,-1.82 16.23,-2.73 5.31,-0.887 10.59,-1.899 15.94,-2.661 5.47,-0.769 11.02,-1.308 16.52,-1.949 5.39,-0.64 10.76,-1.379 16.21,-1.89 5.61,-0.508 11.29,-0.797 16.96,-1.18 5.43,-0.367 10.82,-0.859 16.31,-1.098 5.72,-0.269 11.52,-0.281 17.28,-0.402 5.82,-0.129 11.6,-0.367 17.46,-0.359 0,0 0,0 0.02,0 5.86,-0.008 11.64,0.23 17.46,0.359 5.76,0.121 11.56,0.133 17.29,0.402 5.49,0.239 10.88,0.731 16.31,1.098 5.66,0.383 11.34,0.672 16.95,1.18 5.45,0.511 10.82,1.261 16.23,1.89 5.49,0.641 11.03,1.18 16.48,1.949 5.37,0.762 10.65,1.774 15.96,2.661 5.41,0.91 10.86,1.703 16.23,2.73 5.27,1.02 10.45,2.27 15.67,3.41 5.31,1.16 10.66,2.223 15.93,3.512 5.24,1.289 10.39,2.809 15.57,4.219 5.16,1.398 10.35,2.691 15.45,4.218 5.17,1.563 10.27,3.352 15.41,5.032 5,1.648 10.06,3.179 15.02,4.941 5.08,1.809 10.06,3.867 15.08,5.801 4.92,1.898 9.88,3.68 14.74,5.699 4.92,2.051 9.77,4.328 14.65,6.508 4.84,2.16 9.75,4.199 14.53,6.492 4.79,2.277 9.46,4.789 14.18,7.188 4.81,2.441 9.65,4.761 14.38,7.32 4.47,2.422 8.82,5.07 13.26,7.601 4.88,2.801 9.82,5.481 14.65,8.418 3.81,2.321 7.52,4.852 11.27,7.243 5.35,3.398 10.72,6.711 15.97,10.281 2.84,1.918 5.59,4.019 8.38,5.988 6.1,4.281 12.21,8.512 18.19,13.02 1.3,0.968 2.55,2.058 3.84,3.039 24.77,18.953 48.62,39.801 71.43,62.722 106.95,106.489 170.57,235.029 188.94,379.649 1.64,12.94 3.07,25.95 3.99,39.13 1.19,17.13 1.95,34.38 1.91,51.91 v 0.01 865.07 h -370.93"
         style="fill:#ffffff;fill-opacity:1;fill-rule:nonzero;stroke:none"
         transform="matrix(0.13333333,0,0,-0.13333333,0,302.36)" />
    </g>
  </g>
</svg>
